<?xml version="1.0" standalone="no"?><!DOCTYPE svg PUBLIC "-//W3C//DTD SVG 1.1//EN" "http://www.w3.org/Graphics/SVG/1.1/DTD/svg11.dtd"><svg t="1768372664281" class="icon" viewBox="0 0 1024 1024" version="1.1" xmlns="http://www.w3.org/2000/svg" p-id="2720" xmlns:xlink="http://www.w3.org/1999/xlink" width="200" height="200"><path d="M0 0m120.454008 0l782.951053 0q120.454008 0 120.454008 120.454008l0 782.951053q0 120.454008-120.454008 120.454008l-782.951053 0q-120.454008 0-120.454008-120.454008l0-782.951053q0-120.454008 120.454008-120.454008Z" fill="#F1F1F1" p-id="2721"></path><path d="M658.190814 621.633022H1023.859069v272.226059A122.501726 122.501726 0 0 1 895.726118 1023.859069h-237.535304z" fill="#B2D8FF" p-id="2722"></path><path d="M1023.859069 364.343261v-145.74935H0v145.74935z" fill="#FFFFFF" p-id="2723"></path><path d="M649.036309 1023.859069h145.74935V0h-145.74935z" fill="#FFFFFF" p-id="2724"></path><path d="M1023.859069 729.318906v-145.74935H0v145.74935z" fill="#FFCF68" p-id="2725"></path><path d="M0 218.593911h649.096536V0H146.261279C29.722026 0 0 65.496867 0 146.261279v72.272405z" fill="#AFE881" p-id="2726"></path><path d="M195.677536 1023.859069h145.74935V0h-145.74935z" fill="#FFCF68" p-id="2727"></path><path d="M103.861468 543.608939l245.726177 74.38035 302.580468-256.9284-234.523953 276.743084 262.740305 81.306455 135.299964-520.120407z" fill="#0093FD" p-id="2728"></path><path d="M652.138 361.091003l-302.610582 256.868172 68.086628 19.814684z" fill="#0066BD" p-id="2729"></path><path d="M349.587645 618.019402v143.882313l97.929109-114.822784-97.959223-29.059529z" fill="#0064BB" p-id="2730"></path></svg>