<?xml version="1.0" standalone="no"?><!DOCTYPE svg PUBLIC "-//W3C//DTD SVG 1.1//EN" "http://www.w3.org/Graphics/SVG/1.1/DTD/svg11.dtd"><svg t="1768372713584" class="icon" viewBox="0 0 1024 1024" version="1.1" xmlns="http://www.w3.org/2000/svg" p-id="6718" xmlns:xlink="http://www.w3.org/1999/xlink" width="200" height="200"><path d="M399.5392 684.51328c22.528 28.16 45.056 62.976 56.832 83.968 14.336 27.648 20.48 46.08 31.232 79.36 6.144 18.432 12.288 24.064 25.088 24.064 13.824 0 19.968-9.216 25.088-24.064 10.24-31.232 17.92-55.296 30.208-77.824 24.064-43.52 54.784-82.432 84.48-119.808 8.192-10.24 60.416-71.68 83.968-120.832 0 0 28.672-53.248 28.672-128 0-69.632-28.16-118.272-28.16-118.272l-81.92 22.016-50.176 131.072-12.288 17.92-2.56 3.584-3.584 4.096-5.632 6.656-8.192 8.192-44.544 36.352-110.592 64-17.92 107.52z" fill="#34A853" p-id="6719"></path><path d="M284.8512 520.67328c27.136 61.952 78.848 115.712 114.176 163.328l187.392-222.208s-26.624 34.816-74.24 34.816c-53.248 0-96.256-42.496-96.256-96.256 0-36.864 22.016-61.952 22.016-61.952l-126.976 34.304-26.112 147.968z" fill="#FBBC04" p-id="6720"></path><path d="M588.9792 159.71328c61.952 19.968 115.712 61.952 147.456 124.416l-150.016 178.688s22.016-25.6 22.016-61.952c0-54.784-46.08-96.256-96.256-96.256-47.104 0-74.752 34.304-74.752 34.304v-112.64l151.552-66.56z" fill="#4285F4" p-id="6721"></path><path d="M319.1552 238.56128c37.376-44.544 102.4-90.112 192.512-90.112 43.52 0 76.8 11.776 76.8 11.776l-150.528 178.688h-106.496l-12.288-100.352z" fill="#1A73E8" p-id="6722"></path><path d="M284.8512 520.67328s-24.576-48.64-24.576-119.296c0-66.56 26.112-124.928 59.392-162.816l118.784 100.352-153.6 181.76z" fill="#EA4335" p-id="6723"></path></svg>